<svg width="406" height="130" fill="none" xmlns="http://www.w3.org/2000/svg"><path d="M135.099 24.955c-1.904-7.416-6.614-10.222-13.83-11.024-10.423-1.103-18.341 4.31-19.844 13.83-1.203 7.517-.301 14.934 4.71 21.448 4.41 5.713 16.036 9.22 22.65 6.214 2.907-1.303 4.611-3.608 5.513-6.515.2-.801.2-1.904 1.303-1.503.902.3 2.104 1.203 1.503 2.105-1.303 2.004-.401 4.21-1.002 6.214-.802 2.906-2.105 4.51-5.513 4.91-10.022 1.103-19.844 1.704-28.864-4.31-7.516-5.01-13.028-16.135-11.525-23.35 3.107-14.734 9.521-20.747 22.149-23.052 7.617-1.403 14.632 0 21.848 1.203 1.003.2 2.105 0 2.005 1.503-.1 3.909.802 8.118-1.103 12.327z" fill="#006C35"/><path d="M158.652 106.235c3.507-.601 5.813-3.708 9.621-2.906-2.906-5.312-2.506-6.815 2.906-8.018 3.608-.802 3.709-4.21 5.713-6.214 1.303-1.302 1.804-4.008 4.41-2.505 2.606 1.503.601 3.508-.1 5.212-.401 1.002-.902 2.004-1.303 3.006 5.512 1.504 8.819-.802 10.623-5.713.802-2.204 2.105-4.109 4.611-2.706 2.806 1.604.1 3.308-.301 5.012-.401 1.503-2.405 2.906.601 4.31 2.005.901 1.002 3.306-.601 3.106-7.116-.701-7.717 5.212-10.423 9.421 2.906.902 5.211-2.305 7.917-.601-2.305 4.61-6.815 7.015-10.222 5.412-2.606-1.203-2.305-5.312.801-13.23-7.115-1.303-9.922.902-11.224 8.82.2.401.3.3.701.1 1.904-.702 4.51-3.007 5.713-.702 1.403 2.907-2.205 3.408-4.109 4.31-3.408 1.503-6.916 2.305-7.517-3.007-.301-2.906-1.904-1.202-2.506-.801-3.808 2.305-7.316 4.81-11.826 1.002-1.202-1.002-3.207 1.102-4.81 1.804-1.704.701-3.408 1.704-5.012.2-1.503-1.403-1.102-3.407-.501-5.111 1.103-3.307 6.214-9.521 9.822-12.027 3.408 4.61-1.904 7.016-3.407 11.025 5.111-1.804 8.218-5.011 10.723-8.419 1.604-2.205 2.606-1.804 4.31-.802 2.706 1.604 0 2.305-.601 3.207-1.303 2.205-3.107 4.009-4.009 6.815z" fill="#DA6E2D"/><path d="M141.514 11.225c7.015-1.303 13.73-1.604 20.746-.1-5.011 1.303-6.014 4.51-5.913 9.12.3 9.32.1 18.741.1 28.062 0 8.519 0 8.519 6.915 11.325h-20.746c5.312-1.202 4.911-5.111 4.911-9.12-.1-10.323-.2-20.746.1-31.069 0-4.41-1.002-7.416-6.113-8.218z" fill="#006C35"/><path d="M262.582 105.334c2.405-1.905 2.506-5.212 4.009-7.617 1.203-1.905 2.606-3.308 4.71-2.105 2.105 1.303 0 2.706-.4 4.11-.802 2.805-3.408 4.91-3.107 8.217 2.906-3.507 6.614-6.113 7.516-10.824.201-.902.702-2.405 1.905-1.804 3.106 1.504 6.314-.5 9.42.301-.4 2.105-1.603 3.407-3.307 3.608-4.309.601-5.713 4.009-7.817 7.016-1.504 2.204-3.408 4.109-5.412 5.812-1.504 1.404-3.408 2.306-5.713 1.504-2.906-.902-1.603-3.207-1.804-5.011 0-1.003.1-2.105 0-3.207zM337.749 108.541c-1.704 1.904-2.506 2.706-3.207 3.608-1.404 1.703-3.408 1.503-5.012 1.002-2.004-.601-2.004-2.606-1.703-4.209 1.403-7.918 5.111-15.034 8.919-21.95.802-1.603 2.105-2.906 3.308-4.309 1.002-1.202 2.405-2.606 4.009-1.503 1.904 1.303.501 3.207-.301 4.31-3.909 5.712-6.214 12.227-9.621 18.14-2.005 3.207-1.804 5.111 3.608 4.911zM248.451 99.721c-.201 1.102-2.305 1.604-3.107 3.608-2.806 7.116-6.414 13.831-9.722 20.846-.801 1.804-2.205 2.806-3.608 4.009-1.002-1.203-3.307-1.503-1.703-4.209 5.111-8.419 8.518-17.539 11.826-26.66.501-1.503.1-4.108 2.906-3.707 3.107.3 2.406 3.307 3.408 6.113zM296.457 93.106c-.401-.2-1.002-.601-1.303-.4-1.703 1.102-3.207 2.806-5.011.3-.601-.802-.701-2.505.301-2.505 2.806-.1 3.007-6.214 7.116-3.007.4.3.902.701 1.303.601 1.403-.1 3.908-3.608 3.808.702 0 2.505-2.305 4.71-5.613 4.41-.3 0-.501 0-.601-.1zM328.628 93.307c-1.002-.602-1.804-1.504-2.706-.501-1.302 1.303-2.706 2.305-3.808 0-1.002-2.005.802-2.907 1.904-4.11 2.506-3.006 6.214-1.002 9.221-2.204.401-.2 1.703.601 1.202 1.603-1.303 2.506-2.605 5.011-5.813 5.212zM201.447 108.841c.1 2.406-4.31 8.018-6.715 8.419-1.003.2-1.905 0-2.706-.802-.902-1.002-.401-1.804.3-2.505 2.005-2.005 4.109-3.809 5.112-6.515.501-1.303 1.503-1.102 2.405-.802 1.002.201 1.704 1.003 1.604 2.205zM160.857 92.104c-1.404-.902-2.406.1-3.208.601-1.302.902-2.204.502-2.906-.6-.702-1.204-.702-2.607.1-3.71.702-1.102 1.804-1.302 3.007-.901.902.3 1.203 1.804 2.906 1.102 1.203-.5 3.608-1.403 3.508 1.504-.1 2.004-1.704 2.505-3.407 2.004zM265.789 91.202c-1.102 1.203-2.104 4.11-2.806 2.907-1.904-3.408-7.517 4.209-7.316-2.807 0-.801-.1-1.804 1.102-1.904 2.506 0 5.011 0 7.417.2.601 0 1.102 1.003 1.603 1.604zM248.351 92.004c-.902-2.205-4.611-3.508-1.504-6.514 1.604-1.604 2.907-.602 3.608.3 2.706 3.107-1.904 3.909-2.104 6.214zM342.76 109.643c.701 2.105-1.002 3.007-2.506 3.408-1.603.401-2.305-.902-2.405-2.406-.1-1.904.501-3.207 2.706-3.407 1.603-.1 2.505.501 2.205 2.405z" fill="#DA6E2D"/><path d="M254.464 58.33c.1 0 .1 0 0 0 .1 0 .1-.1.1-.1l-.1.1z" fill="#006C35"/><path d="M389.564 48.307c-4.009-4.41-8.319-8.519-12.228-12.928-3.006-3.408-2.405-5.012.401-7.617 6.815-6.114 12.628-13.63 21.949-16.938-5.412-.701-10.824-.802-16.236-.601-.601 0-1.904 1.102-.702 2.205.902.801.802 1.503.201 2.405-4.209 6.013-10.423 9.922-14.633 15.935-.4-4.71-.4-9.02-.4-13.33 0-2.004-.201-4.108 2.706-4.309 1.102-.1 2.104-.701 1.804-1.804-.201-.902-1.303-1.202-2.506-1.202h-30.969c-1.303 0-2.706.4-2.806 1.403 0 1.202 1.303 1.603 2.706 1.603 3.207 0 3.809 2.606 3.909 4.71.2 8.92.1 17.84.1 26.76-.501.3-.902.601-1.403.902-.902-1.303-1.704-2.806-2.806-4.009-9.521-10.022-19.945-19.042-28.764-29.766-.902-1.102-1.904-3.307-3.809-2.506-1.804.802-1.302 2.807-1.302 4.41 0 11.526-.101 23.051.1 34.577 0 3.407-.902 6.615-1.604 9.822-2.806-.702-3.608-2.907-4.409-4.811-5.212-12.628-10.223-25.456-15.535-38.084-.902-2.205-.702-6.214-3.909-5.914-2.405.2-2.806 3.91-3.808 6.314-4.911 12.228-9.922 24.555-14.833 36.782-1.203 2.906-2.205 6.013-6.214 5.713-.3.801-1.303 2.104.101 2.305 5.211.802 10.523 1.202 15.935-.802-4.911-1.203-5.512-3.708-3.107-7.517 1.002-1.603 1.203-3.708 1.804-5.512.501-1.403 1.102-2.706 3.007-2.706h11.525c.802 0 1.604 0 1.804 1.203.602 4.81 5.412 8.619 3.508 14.131-.401 1.103.902 1.704 1.904 1.704h24.053c1.203 0 2.205-.601 2.306-1.403 0-.902-1.003-1.704-2.205-1.604-4.109.501-4.51-2.205-4.51-5.312 0-2.706-.301-5.411.1-8.017.701-6.214-1.804-12.227-.702-19.143 4.51 4.51 8.519 8.62 12.428 12.628l21.247 21.247c.902 1.003 1.904 2.105 3.408 1.404 1.302-.702.601-2.105.701-3.107.401-9.12.702-18.24 1.002-27.361.101-4.31.301-8.72-.1-13.029-.301-3.708 1.804-5.011 4.51-5.011 2.706 0 5.713.802 5.713 4.91-.1 11.827 0 23.754-.1 35.58 0 2.004-.201 4.31-2.406 5.211-1.202.501-3.407 0-2.906 2.005.401 1.804 2.706 1.503 3.908 1.002 4.11-1.303 8.018-1.102 12.027 0 1.804.501 4.109.501 4.41-2.806-5.613.902-6.314-2.205-6.013-6.715.3-4.21.1-8.52.1-14.031 2.505 3.006 4.911 4.61 6.314 7.316 1.403 2.606 4.109 4.109 5.813 6.715 5.512 8.419 16.937 12.026 25.957 8.72V59.03c-7.216-1.002-11.926-5.713-16.536-10.724zm-109.744-9.12c-2.305-.1-4.61 0-7.416 0 1.804-4.81 3.407-9.22 5.412-14.632 1.603 4.41 2.505 7.917 4.109 11.224 1.403 2.706.702 3.508-2.105 3.408z" fill="#006C35"/><path d="M71.258.1c-22.75 0-45.4 0-68.151-.1C.6 0 0 .601 0 3.107c.1 22.75.1 45.4.1 68.151 22.15 0 44.399-.1 66.548.1 3.708 0 4.71-.902 4.71-4.71-.2-22.25-.1-44.399-.1-66.548zM66.247 62.64c0 2.906-.902 3.608-3.708 3.608-17.84-.1-35.68-.1-53.519.1-3.608 0-4.009-1.403-3.909-4.41.2-9.02.1-18.04.1-27.06s.1-18.04-.1-27.06c-.2-3.207.902-3.808 3.909-3.808 17.84.1 35.68.1 53.619 0 2.706 0 3.708.601 3.708 3.608-.2 18.34-.2 36.681-.1 55.022zM143.618 96.614c-1.904-1.303-3.908.2-4.911 2.005-1.603 2.806-2.706 5.913-5.011 8.118-2.205-2.606-1.102-5.713-1.403-8.62-.1-1.002.501-2.305-1.202-2.806-5.914-1.904-12.628-.3-16.537 4.31-4.009 4.71-10.022 6.214-15.134 9.22-1.804 1.002-2.605.1-3.006-1.202-.702-2.306 3.307-7.718 5.813-8.219 5.612-1.102 10.824-3.407 15.935-6.013.902-.4 2.004-.701 1.603-1.904-.4-1.002-1.503-1.103-2.505-1.103-2.205-.1-4.109 1.203-6.114 1.604-2.004.4-3.908 2.305-6.514.802 2.706-2.806 4.71-5.813 9.421-5.713 2.405 0 5.211-.601 7.817-.702 1.303-.1 2.205-.701 2.506-2.004.2-.802.1-1.804-1.003-1.904-6.614-.802-13.229.5-19.843 1.102-3.408.3-1.404 3.909-2.606 5.713-.401.501-.902.902-1.403 1.403-3.207 3.809-5.813 8.018-7.417 12.929-.802 2.605-1.804 5.111.3 7.416 2.306 2.606 5.413 3.007 8.62 2.105 3.909-1.103 6.815-3.708 9.922-6.715-.401 4.71 7.316 7.116 2.305 12.427-3.107 3.208-4.31 8.82-10.824 6.816.702 1.503 1.303 2.706 1.804 3.908h6.013c8.82-7.617 11.426-19.142 17.439-27.661 5.913 11.926-2.004 19.042-11.726 26.659 5.512-.802 8.82-1.804 11.826-4.811 6.515-6.514 10.123-14.833 15.234-22.249 1.102-1.904 2.405-3.708.601-4.91zm-24.755 10.523c-.3.902-1.302 1.604-2.405.802-1.203-.802-.501-1.603-.1-2.505 1.002-2.205 2.906-3.308 4.811-5.112.601 3.007-1.504 4.711-2.306 6.815z" fill="#DA6E2D"/><path d="M254.564 58.23l-.1.1.1-.1zM249.954 31.67c1.203-1.704 2.606-3.307 3.708-5.111 3.308-5.412 1.303-13.23-4.409-15.033-9.121-2.907-18.441-.802-28.063-.702 9.02.802 7.216 7.216 7.317 12.528.1 6.715.3 13.33-.101 20.044-.3 5.913 2.807 13.23-5.512 16.838 10.724-.802 21.448 3.407 31.67-1.804 1.403-2.406 3.909-3.809 4.911-6.515 3.107-8.318-.1-15.133-9.521-20.245zm-12.427-4.51c.3-1.603 0-3.307 0-5.01 0-1.805.1-3.71 0-5.513-.101-1.904.501-2.706 2.505-2.506 5.412.401 6.314 5.011 7.216 8.72.802 3.407-1.102 7.015-4.71 8.218-2.606.701-5.913.802-5.011-3.909zm9.02 29.065c-5.312 2.305-8.92.2-8.92-5.613v-5.01c0-2.206.2-4.41-.1-6.515-.401-3.408 1.002-4.51 4.109-3.909 5.111.902 8.017 4.41 9.821 13.13.702 3.407-1.302 6.413-4.91 7.917zM193.629 31.67c.501-.5.902-1.002 1.303-1.503 6.515-6.013 6.013-17.74-5.412-19.543-6.815-1.103-13.53-.2-20.345-.502-.902 0-2.506-.801-2.706 1.604 5.612.4 6.214 4.009 6.013 8.82-.3 10.022-.2 19.944-.1 29.966 0 3.909.501 7.918-5.713 8.319 1.103.801 1.404 1.202 1.804 1.202 7.617.1 15.334.501 22.951-.1 5.613-.401 10.023-3.508 12.027-9.22 2.706-7.718-.702-14.533-9.822-19.043zm-12.227-14.532c-.301-3.708 2.105-3.608 4.009-2.906 4.009 1.503 5.312 5.412 5.813 9.02.501 2.806-1.303 5.712-3.909 7.416-.802.501-1.904.4-2.806.601-2.606.401-3.207-.801-3.107-3.106.201-3.709.301-7.417 0-11.025zm14.031 32.973c-1.002 4.81-7.516 8.118-11.726 5.713-1.403-.802-2.505-2.105-2.305-4.11.201-2.304 0-4.71 0-7.015v-5.512c0-4.21 1.704-5.312 5.813-3.808 4.41 1.703 9.22 10.322 8.218 14.732z" fill="#006C35"/><path d="M327.426 97.616c-2.406-3.106-5.212-.6-7.717-.2-.902.1-1.704 1.002-2.506 1.503-1.002-2.004.601-4.209-1.403-5.512-1.203-.802-13.329 2.405-14.031 3.708-1.804 3.709-3.408 7.417-5.111 11.125-.802 1.704-1.905 3.708.4 4.71 2.105.802 2.807-1.403 3.709-3.006 2.305-4.21 4.911-8.218 9.32-10.524 1.003-.5 1.504-1.804 2.706-.1.802 1.203 1.804 2.005.802 3.508-.701 1.102-1.503 2.105-2.105 3.307-1.202 2.005-1.302 4.009.401 5.913 1.604 1.804 3.207 1.303 5.312.602 3.909-1.203 6.915-3.508 9.02-6.515 1.704-2.405 3.608-5.412 1.203-8.519zm-8.118 8.82c-1.002.301-1.403 1.904-3.107 1.604.2-1.203.501-2.406 1.503-3.208.702-.601 1.203-1.703 2.406-1.403.601.201 1.403 1.003 1.302 1.303-.2 1.002-1.102 1.403-2.104 1.704zM228.507 100.423c.701-1.404 2.004-3.007.1-4.41-1.704-1.303-3.909-2.706-5.913-1.303-4.911 3.508-10.023 6.915-10.925 13.73-.501 3.709 1.404 6.014 4.811 4.711 2.205-.902 4.209-1.303 6.414-.702 2.205.401 4.31-.3 5.011-2.405 1.003-2.806-2.004-1.002-2.806-1.904-.802-.802.1-1.504.401-2.105.902-1.904 2.005-3.708 2.907-5.612zm-10.824 6.815c.501-2.806 2.204-4.009 4.81-4.21-1.503 1.303-3.107 2.606-4.81 4.21zM294.252 96.314c-4.81-.1-13.229 6.314-14.532 11.024-.902 3.307 1.904 6.715 5.212 5.813 5.512-1.403 9.621-4.911 12.227-9.922 2.004-3.909.501-6.915-2.907-6.915zm-9.12 12.227c.1-.802 0-1.203.201-1.303 1.403-1.203 2.204-3.207 4.309-3.508.201 0 .601.501.601.702-.501 2.505-2.806 2.806-5.111 4.109zM262.682 105.233c-.1.1-.1.1 0 0-.1.1 0 0 0 0zM263.584 101.024c.201-2.906-.601-5.412-4.309-4.71-5.913 1.102-10.323 4.509-13.029 9.921-.902 1.804-1.303 4.009.501 5.412 1.403 1.103 3.007 1.804 5.312 1.103 4.51-1.403 7.015-5.111 10.623-7.517-.3-1.503.702-2.806.902-4.209zm-12.527 7.416v-.902c1.703-1.002 1.202-4.51 4.209-3.908.401.1 1.102.801 1.002 1.002-.802 2.205-2.906 2.806-5.211 3.808z" fill="#DA6E2D"/><path d="M9.822 51.815c-2.105-.501-1.704-2.205-1.704-3.708 0-4.71-.1-9.321 0-14.032.1-4.81 4.31-9.32 9.22-8.819 3.91.4 6.214 2.806 7.016 7.416 1.002 5.613.4 11.225.701 16.838.1 1.002.502 2.505-1.403 2.605-2.305 0-1.503-1.803-1.503-2.906-.1-4.31.2-8.72-.1-13.029-.3-3.407-.2-7.817-5.212-8.018-4.41-.2-5.01 3.107-6.013 6.816-1.403 5.712.1 11.325-1.002 16.837z" fill="#05579C"/><path d="M48.107 52.015c-1.103-6.614-1.905-13.33-.802-19.944.701-4.109 5.211-6.614 10.022-5.813 4.41.702 6.114 3.508 5.813 7.717-.4 4.811 1.704 9.421 1.002 14.232-.2 1.603-.5 3.909-2.205 3.808-2.405-.2-1.102-2.205-1.002-3.808.601-5.312.1-10.523-.902-15.735-.501-2.405-2.706-3.608-4.61-3.909-2.005-.3-4.21 1.203-5.011 3.308-.802 2.104-1.403 4.31-1.403 6.715.1 4.31.601 8.92-.902 13.43z" fill="#DA6E2D"/><path d="M28.263 52.717c.1-7.517-1.504-14.332-.1-21.347.6-3.007 5.812-6.615 8.92-6.114 4.209.601 6.814 3.207 7.015 7.416.3 5.813.1 11.626.1 17.44 0 .901.2 2.304-1.403 1.903-.902-.2-1.904-1.002-1.504-2.205 2.005-4.91-.801-9.721-.2-14.632.401-3.608-.601-6.615-4.81-6.915-3.609-.301-6.114 2.605-6.114 7.216-.1 4.81 0 9.621 0 14.532-.1.701.2 1.503-1.904 2.706z" fill="#006C35"/><path d="M36.18 19.142h24.454c1.303 0 3.508-.801 3.408 1.504-.1 2.305-2.305 1.303-3.608 1.403-8.419.701-16.837-.702-25.256-1.103-7.817-.3-15.534 1.303-23.252 1.103-1.603-.1-4.109.501-4.209-1.403-.1-2.105 2.506-1.504 4.009-1.504 8.118-.1 16.236 0 24.454 0z" fill="#E2BB34"/></svg>